<?xml version="1.0" encoding="utf-8"?>
<!-- Generator: Adobe Illustrator 16.0.0, SVG Export Plug-In . SVG Version: 6.00 Build 0)  -->
<!DOCTYPE svg PUBLIC "-//W3C//DTD SVG 1.1//EN" "http://www.w3.org/Graphics/SVG/1.1/DTD/svg11.dtd">
<svg version="1.1" id="Layer_1" xmlns="http://www.w3.org/2000/svg" xmlns:xlink="http://www.w3.org/1999/xlink" x="0px" y="0px"
	 width="450.048px" height="40.016px" viewBox="0 0 450.048 40.016" enable-background="new 0 0 450.048 40.016"
	 xml:space="preserve">
<!-- <line fill="none" stroke="#000000" stroke-width="3" stroke-miterlimit="10" x1="283.666" y1="20.008" x2="450.048" y2="20.008"/> -->
<line fill="none" stroke="#000000" stroke-width="3" stroke-miterlimit="10" x1="0" y1="20.008" x2="196.382" y2="20.008"/>
<g>
	<path fill-rule="evenodd" clip-rule="evenodd" fill="#0F0F10" d="M247.675,10.06c0.085,0.232-0.141,0.224-0.242,0.285
		c-4.632,2.83-9.27,5.654-13.906,8.478c-2.658,1.618-5.322,3.23-7.972,4.864c-0.335,0.206-0.564,0.213-0.903,0.003
		c-6.578-4.062-13.165-8.11-19.75-12.161c-0.135-0.082-0.27-0.16-0.458-0.272c0.057,1.748,0.11,3.429,0.167,5.11
		c0.115,3.399,0.23,6.798,0.347,10.196c0.012,0.32-0.11,0.608-0.192,0.904c-0.338,1.222-0.677,2.442-1.02,3.676
		c-0.183-0.133-0.173-0.34-0.226-0.511c-0.339-1.099-0.662-2.202-0.996-3.302c-0.036-0.12-0.026-0.27-0.172-0.335
		c0-0.384,0-0.769,0-1.154c0.068-0.017,0.083-0.07,0.088-0.131c0.206-2.504,0.414-5.007,0.621-7.511
		c0.193-2.327,0.45-4.649,0.552-6.981c0.049-1.134,0.515-1.568,1.567-1.893c6.515-2.017,13.005-4.114,19.502-6.192
		c0.325-0.104,0.617-0.109,0.943-0.006c5.744,1.818,11.491,3.629,17.239,5.438C244.466,9.07,246.071,9.563,247.675,10.06z
		 M204.6,10.683c0.004,0.029,0.007,0.058,0.01,0.087c0.156,0,0.312,0,0.468,0c6,0,12.001,0,18.002-0.003
		c0.255,0,0.478,0.043,0.707,0.179c0.606,0.357,1.46,0.263,1.947-0.177c0.444-0.402,0.443-0.948-0.001-1.347
		c-0.56-0.501-1.666-0.528-2.206-0.001c-0.229,0.222-0.45,0.269-0.738,0.269c-5.321-0.005-10.642-0.003-15.963-0.005
		c-0.222,0-0.434,0.002-0.639,0.12C205.662,10.106,205.129,10.392,204.6,10.683z"/>
	<path fill-rule="evenodd" clip-rule="evenodd" fill="#0E0E0E" d="M210.534,17.809c1.279,0.776,2.513,1.524,3.746,2.273
		c3.469,2.11,6.938,4.214,10.399,6.334c0.243,0.147,0.401,0.119,0.632-0.018c4.647-2.781,9.301-5.551,13.952-8.324
		c0.137-0.082,0.276-0.159,0.446-0.256c0.274,1.565,0.54,3.091,0.807,4.617c0.186,1.063,0.343,2.129,0.569,3.183
		c0.128,0.588-0.004,1.075-0.334,1.543c-0.7,0.989-1.596,1.786-2.537,2.527c-3.45,2.714-7.151,5.011-11.23,6.665
		c-0.382,0.155-0.781,0.269-1.173,0.398c-1.424,0.475-2.747,0.078-4.028-0.513c-4.319-1.986-8.208-4.602-11.525-8.029
		c-0.401-0.416-0.743-0.879-0.995-1.406c-0.151-0.316-0.244-0.65-0.125-0.985c0.406-1.139,0.457-2.342,0.667-3.515
		C210.069,20.827,210.287,19.34,210.534,17.809z"/>
</g>
</svg>
